<?xml version="1.0" standalone="no"?>
<!DOCTYPE svg PUBLIC "-//W3C//DTD SVG 20010904//EN"
 "http://www.w3.org/TR/2001/REC-SVG-20010904/DTD/svg10.dtd">
<svg version="1.0" xmlns="http://www.w3.org/2000/svg"
 width="1062.000000pt" height="1024.000000pt" viewBox="0 0 1062.000000 1024.000000"
 preserveAspectRatio="xMidYMid meet">

<g transform="translate(0.000000,1024.000000) scale(0.100000,-0.100000)"
fill="#000000" stroke="none">
<path d="M6995 10221 c-235 -58 -440 -161 -625 -317 -502 -420 -808 -1189
-787 -1979 7 -264 43 -457 126 -679 151 -400 410 -693 736 -829 313 -132 553
-109 897 85 127 71 238 156 362 277 252 247 430 540 549 906 129 394 164 776
112 1215 -31 270 -69 402 -175 615 -227 458 -621 730 -1048 724 -42 -1 -108
-9 -147 -18z"/>
<path d="M3158 10184 c-386 -70 -755 -436 -907 -901 -105 -321 -119 -809 -36
-1226 111 -559 386 -1053 760 -1365 172 -144 380 -263 575 -328 79 -27 96 -29
240 -29 182 0 252 16 415 94 300 143 526 426 654 818 71 215 101 412 101 654
0 448 -94 863 -285 1254 -249 512 -639 869 -1093 1001 -159 46 -282 54 -424
28z"/>
<path d="M9469 7155 c-115 -18 -228 -48 -320 -84 -552 -214 -1001 -745 -1203
-1421 -79 -263 -123 -609 -106 -822 47 -579 371 -1039 815 -1159 111 -31 300
-31 442 0 204 43 419 139 603 269 112 79 321 283 407 397 263 350 423 731 489
1165 25 167 26 541 1 663 -39 193 -119 389 -222 547 -60 92 -207 242 -294 300
-188 126 -408 179 -612 145z"/>
<path d="M850 6936 c-378 -79 -657 -326 -764 -676 -109 -358 -112 -758 -11
-1156 44 -171 91 -297 175 -469 284 -580 773 -995 1332 -1130 316 -77 621 17
860 263 232 238 338 555 338 1005 -1 350 -79 682 -240 1012 -228 467 -589 835
-1033 1054 -165 81 -253 103 -437 107 -104 2 -176 -1 -220 -10z"/>
<path d="M5290 4924 c-383 -33 -703 -118 -1040 -277 -378 -177 -772 -483
-1014 -786 -531 -668 -945 -1453 -1124 -2136 -112 -426 -116 -448 -116 -615 1
-136 4 -167 28 -255 126 -465 502 -787 956 -819 123 -9 332 8 490 40 229 45
380 94 900 287 516 192 692 236 1090 272 209 20 340 16 527 -15 269 -44 493
-118 1008 -332 487 -203 608 -243 805 -268 411 -50 812 89 1030 357 133 164
179 300 187 556 4 101 1 192 -7 250 -52 384 -269 896 -592 1402 -656 1023
-1130 1560 -1732 1957 -308 203 -589 313 -927 362 -105 16 -384 27 -469 20z"/>
</g>
</svg>
